<?xml version="1.0" encoding="utf-8"?>
<!-- Generator: Adobe Illustrator 19.1.0, SVG Export Plug-In . SVG Version: 6.00 Build 0)  -->
<svg version="1.1" id="Warstwa_1" xmlns="http://www.w3.org/2000/svg" xmlns:xlink="http://www.w3.org/1999/xlink" x="0px" y="0px"
	 viewBox="22 292.1 44.7 30.3" style="enable-background:new 22 292.1 44.7 30.3;" xml:space="preserve">
<style type="text/css">
	.st0{fill:#FFFFFF;}
</style>
<path class="st0" d="M37.4,292.9c-8.1,0-14.4,6.9-14.4,14.3c0,7.3,5.9,14.4,14.7,14.4c7.7,0,13.3-5.3,13.3-13c0-1.6-0.2-2.6-0.2-2.6
	H37.6v3.9h9.3c-0.5,5.5-5,7.8-9.3,7.8c-5.5,0-10.3-4.3-10.3-10.4c0-5.9,4.6-10.5,10.3-10.5c4.4,0,7,2.8,7,2.8l2.7-2.8
	C47.3,296.8,43.8,292.9,37.4,292.9L37.4,292.9z M58.4,301v4.9h-4.9v2.7h4.9v4.9h2.7v-4.9H66v-2.7h-4.9V301H58.4z"/>
</svg>
