<?xml version="1.0" encoding="utf-8"?>
<!-- Generator: Adobe Illustrator 19.1.0, SVG Export Plug-In . SVG Version: 6.00 Build 0)  -->
<svg version="1.1" id="Warstwa_1" xmlns="http://www.w3.org/2000/svg" xmlns:xlink="http://www.w3.org/1999/xlink" x="0px" y="0px"
	 viewBox="21.8 228.5 48.8 47.2" style="enable-background:new 21.8 228.5 48.8 47.2;" xml:space="preserve">
<style type="text/css">
	.st0{fill:#FFFFFF;}
</style>
<path class="st0" d="M28.3,228.9c-2.9,0-5.3,2.4-5.3,5.3v35.5c0,2.9,2.4,5.3,5.3,5.3h35.5c2.9,0,5.3-2.4,5.3-5.3v-35.5
	c0-2.9-2.4-5.3-5.3-5.3H28.3z M56.5,234.2h5.3c1.1,0,1.9,1,1.9,1.9v5.3c0,1-1,1.4-1.9,1.4h-5.3c-1,0-1.9-1-1.9-1.9v-4.8
	C54.6,235.1,55.6,234.2,56.5,234.2z M46,242.3c5,0,9.1,4.1,9.1,9.1c0,5-4.1,9.1-9.1,9.1l0,0c-5,0-9.1-4.1-9.1-9.1l0,0
	C36.9,246.4,41,242.3,46,242.3z M28.3,248.1h4.4c-0.4,1.2-0.5,2.5-0.6,3.8c0,7.7,6.2,13.9,13.9,13.9s13.9-6.2,13.9-13.9l0,0
	c0-1.3-0.2-2.6-0.6-3.8h4.4v19.6c0,1-1,1.9-1.9,1.9H30.2c-1,0-1.9-1-1.9-1.9V248.1z"/>
</svg>
