<?xml version="1.0" encoding="utf-8"?>
<!-- Generator: Avocode 2.3.2-ea60620 - http://avocode.com -->
<svg height="20" width="26" xmlns:xlink="http://www.w3.org/1999/xlink" xmlns="http://www.w3.org/2000/svg" viewBox="0 0 26 20">
    <path fill="#ffffff" fill-rule="evenodd" d="M 24.09 19.15 C 24.09 19.15 1.62 19.15 1.62 19.15 C 0.73 19.15 0.01 18.44 0.01 17.56 C 0.01 17.56 0.01 3.99 0.01 3.99 C 0.01 3.99 12.85 14.37 12.85 14.37 C 12.85 14.37 25.69 3.97 25.69 3.97 C 25.69 3.97 25.69 17.56 25.69 17.56 C 25.69 18.44 24.97 19.15 24.09 19.15 Z M 0.01 1.6 C 0.01 0.72 0.73 0.01 1.62 0.01 C 1.62 0.01 24.09 0.01 24.09 0.01 C 24.97 0.01 25.69 0.72 25.69 1.6 C 25.69 1.6 12.85 11.97 12.85 11.97 C 12.85 11.97 0.01 1.6 0.01 1.6 Z" />
</svg>