<?xml version="1.0" encoding="utf-8"?>
<!-- Generator: Adobe Illustrator 19.1.0, SVG Export Plug-In . SVG Version: 6.00 Build 0)  -->
<svg version="1.1" id="Warstwa_1" xmlns="http://www.w3.org/2000/svg" xmlns:xlink="http://www.w3.org/1999/xlink" x="0px" y="0px"
	 viewBox="-24 227.4 57.6 45.3" style="enable-background:new -24 227.4 57.6 45.3;" xml:space="preserve">
<style type="text/css">
	.st0{fill:#FFFFFF;}
</style>
<path fill="#fff" d="M30.2,233.8c-1.9,0.8-3.9,1.4-6.1,1.7c2.2-1.3,3.9-3.4,4.6-5.8c-2,1.2-4.3,2.1-6.7,2.6
	c-1.9-2.1-4.7-3.3-7.7-3.3c-5.8,0-10.6,4.7-10.6,10.6c0,0.8,0.1,1.6,0.3,2.4c-8.8-0.4-16.6-4.6-21.8-11c-0.9,1.6-1.4,3.4-1.4,5.3
	c0,3.7,1.9,6.9,4.7,8.8c-1.7-0.1-3.4-0.5-4.8-1.3c0,0,0,0.1,0,0.1c0,5.1,3.6,9.4,8.5,10.4c-0.9,0.2-1.8,0.4-2.8,0.4
	c-0.7,0-1.3-0.1-2-0.2c1.3,4.2,5.2,7.2,9.9,7.3c-3.6,2.8-8.2,4.5-13.1,4.5c-0.9,0-1.7-0.1-2.5-0.1c4.7,3,10.2,4.7,16.2,4.7
	c19.4,0,30.1-16.1,30.1-30.1c0-0.5,0-0.9,0-1.4C27,237.8,28.8,236,30.2,233.8"/>
</svg>
