<?xml version="1.0" encoding="utf-8"?>
<!-- Generator: Adobe Illustrator 19.1.0, SVG Export Plug-In . SVG Version: 6.00 Build 0)  -->
<svg version="1.1" id="Layer_1" xmlns="http://www.w3.org/2000/svg" xmlns:xlink="http://www.w3.org/1999/xlink" x="0px" y="0px"
	 viewBox="0 0 41.3 41.3" enable-background="new 0 0 41.3 41.3" xml:space="preserve">
<rect x="7.7" y="7.3" fill="none" width="26" height="26"/>
<path fill="#ECF0F1" d="M33.2,0.3h-25c-4.1,0-7.5,3.4-7.5,7.5v25c0,4.1,3.4,7.5,7.5,7.5h25c4.1,0,7.5-3.4,7.5-7.5v-25
	C40.7,3.7,37.3,0.3,33.2,0.3z M28.2,21.3h-2.4v9h-4.1v-9h-1.6v-3h1.6v-1.9c0-2.5,1.1-4,4-4h3v3H27c-1.2,0-1.2,0.4-1.2,1.2l0,1.7h2.8
	L28.2,21.3z"/>
</svg>
