<?xml version="1.0" encoding="utf-8"?>
<!-- Generator: Adobe Illustrator 19.1.0, SVG Export Plug-In . SVG Version: 6.00 Build 0)  -->
<svg version="1.1" id="Warstwa_1" xmlns="http://www.w3.org/2000/svg" xmlns:xlink="http://www.w3.org/1999/xlink" x="0px" y="0px"
	 viewBox="-261 395.9 28.2 50" style="enable-background:new -261 395.9 28.2 50;" xml:space="preserve">
<style type="text/css">
	.st0{fill:#FFFFFF;}
</style>
<path class="st0" d="M-235.1,397.7c-1.3-0.3-2.6-0.5-3.8-0.7c-1.2-0.2-2.5-0.3-3.9-0.3c-4.1,0-7,1-8.8,2.8c-1.8,1.9-2.7,4.5-2.7,8.1
	v5.1h-5.2v8.2h5.2v25h10v-25h7.3l0.7-8.2h-8v-4c-0.1-1.1,0.1-2,0.5-2.6c0.4-0.6,1.4-1,2.9-1c0.6,0,1.3,0,2.2,0.1
	c0.8,0.1,1.6,0.2,2.3,0.3L-235.1,397.7z"/>
</svg>
