<?xml version="1.0" encoding="utf-8"?>
<!-- Generator: Avocode 2.3.2-ea60620 - http://avocode.com -->
<svg height="26" width="19" xmlns:xlink="http://www.w3.org/1999/xlink" xmlns="http://www.w3.org/2000/svg" viewBox="0 0 19 26">
    <path fill="#ffffff" fill-rule="evenodd" d="M 9.47 0 C 4.23 0 -0.01 4.36 -0.01 9.73 C -0.01 12.23 0.91 14.5 2.42 16.22 C 2.42 16.22 9.47 25.96 9.47 25.96 C 9.47 25.96 16.53 16.22 16.53 16.22 C 18.04 14.5 18.96 12.23 18.96 9.73 C 18.96 4.36 14.71 0 9.47 0 Z M 9.47 12.98 C 7.73 12.98 6.31 11.53 6.31 9.73 C 6.31 7.94 7.73 6.49 9.47 6.49 C 11.22 6.49 12.64 7.94 12.64 9.73 C 12.64 11.53 11.22 12.98 9.47 12.98 Z" />
</svg>