<?xml version="1.0" encoding="utf-8"?>
<!-- Generator: Avocode 2.3.2-ea60620 - http://avocode.com -->
<svg height="26" width="26" xmlns:xlink="http://www.w3.org/1999/xlink" xmlns="http://www.w3.org/2000/svg" viewBox="0 0 26 26">
    <path fill="#ffffff" fill-rule="evenodd" d="M 24.32 26.01 C 24.32 26.01 1.62 26.01 1.62 26.01 C 0.72 26.01 -0.01 25.28 -0.01 24.39 C -0.01 24.39 -0.01 19.51 -0.01 19.51 C -0.01 15.61 1.7 12.13 4.41 9.75 C 4.41 9.75 9.73 9.75 9.73 9.75 C 9.73 9.75 9.73 6.92 9.73 6.92 C 10.77 6.65 11.85 6.49 12.97 6.49 C 14.09 6.49 15.17 6.65 16.21 6.92 C 16.21 6.92 16.21 9.75 16.21 9.75 C 16.21 9.75 21.53 9.75 21.53 9.75 C 24.23 12.13 25.94 15.61 25.94 19.51 C 25.94 19.51 25.94 24.39 25.94 24.39 C 25.94 25.28 25.22 26.01 24.32 26.01 Z M 12.97 13 C 9.39 13 6.48 14.82 6.48 17.07 C 6.48 19.31 9.39 21.13 12.97 21.13 C 16.55 21.13 19.46 19.31 19.46 17.07 C 19.46 14.82 16.55 13 12.97 13 Z M 17.84 4.87 C 17.84 4.87 8.1 4.87 8.1 4.87 C 8.1 4.87 8.1 8.12 8.1 8.12 C 8.1 8.12 -0.01 8.12 -0.01 8.12 C -0.01 8.12 -0.01 3.24 -0.01 3.24 C -0.01 3.24 1.62 2.35 1.62 2.35 C 5.1 0.85 8.93 -0.01 12.97 -0.01 C 17.01 -0.01 20.84 0.85 24.32 2.35 C 24.32 2.35 25.94 3.24 25.94 3.24 C 25.94 3.24 25.94 8.12 25.94 8.12 C 25.94 8.12 17.84 8.12 17.84 8.12 C 17.84 8.12 17.84 4.87 17.84 4.87 Z" />
</svg>