<?xml version="1.0" encoding="utf-8"?>
<!-- Generator: Adobe Illustrator 19.1.0, SVG Export Plug-In . SVG Version: 6.00 Build 0)  -->
<svg version="1.1" id="twitter-icon" xmlns="http://www.w3.org/2000/svg" xmlns:xlink="http://www.w3.org/1999/xlink" x="0px"
	 y="0px" viewBox="-291.2 403.3 40.1 34.5" enable-background="new -291.2 403.3 40.1 34.5" xml:space="preserve">
<rect x="-284.1" y="407.6" fill="none" width="26" height="26"/>
<path fill="#ECF0F1" d="M-251.1,408.5c-1.4,0.6-3.1,1.1-4.7,1.3c1.7-1.1,3-2.7,3.6-4.6c-1.6,1-3.3,1.6-5.1,2.1
	c-1.6-1.6-3.6-2.7-5.9-2.7c-4.5,0-8.2,3.8-8.2,8.3c0,0.6,0,1.3,0.2,1.9c-6.7-0.2-12.8-3.5-16.8-8.6c-0.6,1.3-1.1,2.7-1.1,4.1
	c0,2.9,1.4,5.4,3.6,7c-1.4,0-2.6-0.5-3.7-1.1c0,0,0,0,0,0.2c0,4,2.8,7.5,6.5,8.1c-0.6,0.2-1.4,0.3-2.2,0.3c-0.5,0-1.1,0-1.6-0.2
	c1.1,3.3,4,5.7,7.6,5.7c-2.8,2.2-6.4,3.5-10.1,3.5c-0.6,0-1.2,0-2-0.2c3.6,2.4,7.9,3.8,12.5,3.8c15.1,0,23.2-12.8,23.2-23.8
	c0-0.3,0-0.8,0-1.1C-253.6,411.7-252.2,410.3-251.1,408.5"/>
</svg>
