<?xml version="1.0" encoding="utf-8"?>
<!-- Generator: Adobe Illustrator 19.1.0, SVG Export Plug-In . SVG Version: 6.00 Build 0)  -->
<svg version="1.1" id="Warstwa_1" xmlns="http://www.w3.org/2000/svg" xmlns:xlink="http://www.w3.org/1999/xlink" x="0px" y="0px"
	 viewBox="22 254.1 50.7 43.7" style="enable-background:new 22 254.1 50.7 43.7;" xml:space="preserve">
<style type="text/css">
	.st0{fill:#FFFFFF;}
</style>
<path class="st0" d="M72,264.6c-0.5,5.9-4,11.1-7.2,15.8c-4.2,5.6-8.5,11.5-14.6,15.2c-2.5,1.4-6,2.4-8.4,0.2
	c-3.7-3.5-4.5-8.8-5.8-13.4c-1.4-4.6-2.1-9.6-4.5-13.9c-1.4-3.2-4.4-0.8-6.1,0.6c-0.8-1-1.5-2-2.3-3c3.9-3.3,7.4-7.2,11.8-9.8
	c2.5-1.7,6.3-1.2,7.8,1.5c2.1,3.5,2,7.7,2.8,11.5c0.7,3.9,1.2,8,3.2,11.5c1.7,2.6,4.1-0.9,5.1-2.4c1.9-3,4.2-6.1,4.3-9.8
	c0.3-3-3.3-3.8-5.6-2.9c-1.4,0.7-1.6,0.3-0.9-0.9c1.5-4.5,4.9-8.8,9.7-9.8c3.2-0.7,7.4-0.6,9.4,2.6C71.9,259.7,72.1,262.2,72,264.6
	L72,264.6z"/>
</svg>
