<?xml version="1.0" encoding="utf-8"?><svg width="1366" height="618" viewBox="0 0 1366 618" xmlns="http://www.w3.org/2000/svg" xmlns:xlink="http://www.w3.org/1999/xlink"><svg height="71" width="33" viewBox="0 0 33 71" id="arrow-left" x="512" y="106"><path fill="#3d3d3d" fill-rule="evenodd" d="M0 35.5L31.89 71 33 69.99 2.01 35.5 33 1l-1.11-1L0 35.5z"/></svg><svg height="71" width="33" viewBox="0 0 33 71" id="arrow-right" x="545" y="106"><path fill="#3d3d3d" fill-rule="evenodd" d="M33 35.5L1.11 71 0 69.99 30.99 35.5 0 1l1.11-1L33 35.5z"/></svg><svg viewBox="0 0 41.3 41.3" width="41.3" height="41.3" id="facebook" x="606.2" y="106"><path fill="none" d="M7.7 7.3h26v26h-26z"/><path fill="#ECF0F1" d="M33.2.3h-25C4.1.3.7 3.7.7 7.8v25c0 4.1 3.4 7.5 7.5 7.5h25c4.1 0 7.5-3.4 7.5-7.5v-25c0-4.1-3.4-7.5-7.5-7.5zm-5 21h-2.4v9h-4.1v-9h-1.6v-3h1.6v-1.9c0-2.5 1.1-4 4-4h3v3H27c-1.2 0-1.2.4-1.2 1.2v1.7h2.8l-.4 3z"/></svg><svg id="facebook-big" viewBox="-261 395.9 28.2 50" width="28.2" height="50" x="578" y="106"><style>.dst0{fill:#fff}</style><path class="dst0" d="M-235.1 397.7c-1.3-.3-2.6-.5-3.8-.7-1.2-.2-2.5-.3-3.9-.3-4.1 0-7 1-8.8 2.8-1.8 1.9-2.7 4.5-2.7 8.1v5.1h-5.2v8.2h5.2v25h10v-25h7.3l.7-8.2h-8v-4c-.1-1.1.1-2 .5-2.6.4-.6 1.4-1 2.9-1 .6 0 1.3 0 2.2.1.8.1 1.6.2 2.3.3l1.3-7.8z"/></svg><svg height="20" width="26" viewBox="0 0 26 20" id="mail" x="687.6" y="106"><path fill="#fff" fill-rule="evenodd" d="M24.09 19.15H1.62c-.89 0-1.61-.71-1.61-1.59V3.99l12.84 10.38 12.84-10.4v13.59c0 .88-.72 1.59-1.6 1.59zM.01 1.6C.01.72.73.01 1.62.01h22.47c.88 0 1.6.71 1.6 1.59L12.85 11.97.01 1.6z"/></svg><svg height="26" width="19" viewBox="0 0 19 26" id="marker" x="512" y="177"><path fill="#fff" fill-rule="evenodd" d="M9.47 0C4.23 0-.01 4.36-.01 9.73c0 2.5.92 4.77 2.43 6.49l7.05 9.74 7.06-9.74c1.51-1.72 2.43-3.99 2.43-6.49C18.96 4.36 14.71 0 9.47 0zm0 12.98c-1.74 0-3.16-1.45-3.16-3.25 0-1.79 1.42-3.24 3.16-3.24 1.75 0 3.17 1.45 3.17 3.24 0 1.8-1.42 3.25-3.17 3.25z"/></svg><svg height="26" width="26" viewBox="0 0 26 26" id="phone" x="531" y="177"><path fill="#fff" fill-rule="evenodd" d="M24.32 26.01H1.62c-.9 0-1.63-.73-1.63-1.62v-4.88c0-3.9 1.71-7.38 4.42-9.76h5.32V6.92c1.04-.27 2.12-.43 3.24-.43s2.2.16 3.24.43v2.83h5.32c2.7 2.38 4.41 5.86 4.41 9.76v4.88c0 .89-.72 1.62-1.62 1.62zM12.97 13c-3.58 0-6.49 1.82-6.49 4.07 0 2.24 2.91 4.06 6.49 4.06s6.49-1.82 6.49-4.06c0-2.25-2.91-4.07-6.49-4.07zm4.87-8.13H8.1v3.25H-.01V3.24l1.63-.89C5.1.85 8.93-.01 12.97-.01s7.87.86 11.35 2.36l1.62.89v4.88h-8.1V4.87z"/></svg><svg height="106" width="1366" viewBox="0 0 1366 106" id="separator"><path fill="#f6f6f6" fill-rule="evenodd" d="M-2 0h1369s-90.05 14.09-682.79 106C15.5 3.06-2 0-2 0z"/></svg><svg viewBox="-291.2 403.3 40.1 34.5" width="40.1" height="34.5" id="twitter" x="647.5" y="106"><path fill="none" d="M-284.1 407.6h26v26h-26z"/><path fill="#ECF0F1" d="M-251.1 408.5c-1.4.6-3.1 1.1-4.7 1.3 1.7-1.1 3-2.7 3.6-4.6-1.6 1-3.3 1.6-5.1 2.1-1.6-1.6-3.6-2.7-5.9-2.7-4.5 0-8.2 3.8-8.2 8.3 0 .6 0 1.3.2 1.9-6.7-.2-12.8-3.5-16.8-8.6-.6 1.3-1.1 2.7-1.1 4.1 0 2.9 1.4 5.4 3.6 7-1.4 0-2.6-.5-3.7-1.1v.2c0 4 2.8 7.5 6.5 8.1-.6.2-1.4.3-2.2.3-.5 0-1.1 0-1.6-.2 1.1 3.3 4 5.7 7.6 5.7-2.8 2.2-6.4 3.5-10.1 3.5-.6 0-1.2 0-2-.2 3.6 2.4 7.9 3.8 12.5 3.8 15.1 0 23.2-12.8 23.2-23.8v-1.1c1.7-.8 3.1-2.2 4.2-4"/></svg><svg id="twitter-big" viewBox="-41 164.9 512 512" width="512" height="512" y="106"><style>.jst0{fill:#fff}</style><path class="jst0" d="M451.3 274.3c-17.4 7.7-36.1 12.9-55.7 15.3 20-12 35.4-31 42.6-53.6-18.7 11.1-39.5 19.2-61.6 23.5-17.7-18.8-42.9-30.6-70.8-30.6-53.5 0-96.9 43.4-96.9 96.9 0 7.6.9 15 2.5 22.1-80.6-4-152-42.6-199.8-101.3-8.3 14.3-13.1 31-13.1 48.7 0 33.6 17.1 63.3 43.1 80.7-15.9-.5-30.8-4.9-43.9-12.1v1.2c0 47 33.4 86.1 77.8 95.1-8.1 2.2-16.7 3.4-25.5 3.4-6.2 0-12.3-.6-18.2-1.7 12.3 38.5 48.1 66.5 90.6 67.3-33.2 26-75 41.5-120.4 41.5-7.8 0-15.5-.5-23.1-1.4 42.9 27.5 93.9 43.6 148.6 43.6 178.3 0 275.8-147.7 275.8-275.8 0-4.2-.1-8.4-.3-12.5 18.8-13.7 35.3-30.8 48.3-50.3"/></svg></svg>