<?xml version="1.0" encoding="utf-8"?><svg width="1366" height="152" viewBox="0 0 1366 152" xmlns="http://www.w3.org/2000/svg" xmlns:xlink="http://www.w3.org/1999/xlink"><svg height="20" width="26" viewBox="0 0 26 20" id="mail" y="106"><path fill="#fff" fill-rule="evenodd" d="M24.09 19.15H1.62c-.89 0-1.61-.71-1.61-1.59V3.99l12.84 10.38 12.84-10.4v13.59c0 .88-.72 1.59-1.6 1.59zM.01 1.6C.01.72.73.01 1.62.01h22.47c.88 0 1.6.71 1.6 1.59L12.85 11.97.01 1.6z"/></svg><svg height="26" width="19" viewBox="0 0 19 26" id="marker" y="126"><path fill="#fff" fill-rule="evenodd" d="M9.47 0C4.23 0-.01 4.36-.01 9.73c0 2.5.92 4.77 2.43 6.49l7.05 9.74 7.06-9.74c1.51-1.72 2.43-3.99 2.43-6.49C18.96 4.36 14.71 0 9.47 0zm0 12.98c-1.74 0-3.16-1.45-3.16-3.25 0-1.79 1.42-3.24 3.16-3.24 1.75 0 3.17 1.45 3.17 3.24 0 1.8-1.42 3.25-3.17 3.25z"/></svg><svg height="26" width="26" viewBox="0 0 26 26" id="phone" x="19" y="126"><path fill="#fff" fill-rule="evenodd" d="M24.32 26.01H1.62c-.9 0-1.63-.73-1.63-1.62v-4.88c0-3.9 1.71-7.38 4.42-9.76h5.32V6.92c1.04-.27 2.12-.43 3.24-.43s2.2.16 3.24.43v2.83h5.32c2.7 2.38 4.41 5.86 4.41 9.76v4.88c0 .89-.72 1.62-1.62 1.62zM12.97 13c-3.58 0-6.49 1.82-6.49 4.07 0 2.24 2.91 4.06 6.49 4.06s6.49-1.82 6.49-4.06c0-2.25-2.91-4.07-6.49-4.07zm4.87-8.13H8.1v3.25H-.01V3.24l1.63-.89C5.1.85 8.93-.01 12.97-.01s7.87.86 11.35 2.36l1.62.89v4.88h-8.1V4.87z"/></svg><svg height="106" width="1366" viewBox="0 0 1366 106" id="separator"><path fill="#f6f6f6" fill-rule="evenodd" d="M-2 0h1369s-90.05 14.09-682.79 106C15.5 3.06-2 0-2 0z"/></svg><svg viewBox="0 0 26 22" width="26" height="22" id="twitter" x="45" y="126"><path fill="none" d="M-.1-2.3h26v26h-26z"/><path fill="#ecf0f1" d="M25.7 3.3c-.9.4-2 .7-3 .8 1.1-.7 1.9-1.7 2.3-2.9-1 .6-2.1 1-3.3 1.3-1-1-2.3-1.7-3.8-1.7-2.9 0-5.3 2.4-5.3 5.2 0 .4 0 .8.1 1.2C8.4 7.1 4.5 5 1.9 1.8c-.4.8-.7 1.7-.7 2.6 0 1.8.9 3.4 2.3 4.4-.9 0-1.7-.3-2.4-.7v.1c0 2.5 1.8 4.7 4.2 5.1-.4.1-.9.2-1.4.2-.3 0-.7 0-1-.1.7 2.1 2.6 3.6 4.9 3.6-1.8 1.4-4.1 2.2-6.5 2.2-.4 0-.8 0-1.3-.1 2.3 1.5 5.1 2.4 8 2.4 9.7 0 14.9-8 14.9-14.9v-.7c1.2-.6 2.1-1.5 2.8-2.6"/></svg></svg>